<svg viewBox="0 0 666.08105 210.02821" xmlns="http://www.w3.org/2000/svg">
 <g transform="translate(-49.925 -19.937)">
  <path d="m398.27 229.79c-0.2035-0.2008-1.9285-0.53539-3.8334-0.74347s-5.1127-1.0691-7.1286-1.9134-7.6303-2.5689-12.477-3.8327-9.6802-2.6279-10.742-3.0315-2.8367-0.7413-3.9448-0.75045-2.8503-0.65883-3.8717-1.4437l-1.8571-1.427 1.2631-3.6213c2.3096-6.6214 8.6893-31.266 10.272-39.681 1.6506-8.775 2.9061-23.185 2.4431-28.04-0.2395-2.5116-0.5686-2.9585-2.4564-3.3361-1.8391-0.36776-2.1799-0.79667-2.1799-2.7431 0-1.269 0.5486-3.3681 1.2192-4.6649 1.0343-2.0002 1.1395-3.9004 0.6939-12.531-0.5712-11.065-0.7777-11.665-5.7152-16.602-2.7445-2.7445-2.9513-3.2511-2.9513-7.2285 0-5.3335-1.3298-4.5166-2.011 1.2353l-0.4704 3.9718-3.8244-0.46548c-2.1033-0.25602-5.0765-0.67599-6.6069-0.93327-2.706-0.45487-2.8172-0.38171-4.0298 2.6487-2.0911 5.2263 1.4042 4.9433-42.337 3.428-5.9842-0.20731-21.855-0.7081-35.268-1.1129-36.273-1.0946-46.056-1.5837-47.004-2.3497-0.4706-0.3805-1.5607-2.3306-2.4224-4.3335-1.9412-4.5128-3.456-5.2756-4.5043-2.2685-0.6936 1.9898-1.0918 2.2055-4.0706 2.2055-3.1044 0-3.3725-0.16817-4.4868-2.8139-0.6519-1.5476-1.3875-3.7529-1.6349-4.9006-0.4395-2.0398-0.5361-2.0752-4.2972-1.5763-2.9719 0.39423-4.0346 0.25708-4.6697-0.60265-0.45217-0.61218-2.0884-1.3167-3.6361-1.5656l-2.8139-0.45255v3.9298c0 2.1614-0.4052 4.335-0.90045 4.8303-1.3009 1.3009-5.8078 1.1407-6.332-0.22511-0.29369-0.76547-1.4924-1.1256-3.7468-1.1256-2.868 0-3.4137-0.25955-4.0468-1.9248-1.0873-2.8599-0.88664-6.1681 0.41849-6.8985 0.69012-0.38623-3.2868-0.71304-9.9425-0.81704-6.101-0.09533-12.209-0.53019-13.573-0.96635-1.4546-0.46503-5.4892-0.62293-9.7549-0.38175-4.0008 0.2262-15.632 0.41282-25.846 0.41471-5.6088 0.24925-10.931 0.20049-15.145 0.14431s-7.3226-0.11977-8.5035 0.09983c-25.326-0.01808-32.624-0.10199-33.815-1.8026-0.99071-1.4145-1.5771-4.1878-1.7977-8.5031-0.11473-2.2431 0.97909-5.8386 2.2069-7.2545 10.424-0.01893 25.029-0.24013 33.23-0.25573 2.0048 0.25561 5.9736 0.50017 11.255 0.70809s11.877 0.37919 19.135 0.48819c5.7779 0.08679 11.326 0.46047 12.33 0.83041 1.0422 0.38417 10.76 0.44802 22.659 0.1489l20.834-0.52374 0.02979-20.087c0.02926-19.737 0.43994-23.566 2.5525-23.802 0.48099-0.05359 2.394-0.30781 4.2512-0.56492 4.2093-0.58277 3.4787-1.2629 17.216 16.029 6.3938 8.0478 11.052 13.296 11.36 12.798 0.5817-0.9412 127.17-2.0251 130.77-1.1198 1.592 0.39957 2.1822 1.1964 2.9147 3.935l0.9184 3.434 3.7643-0.48459c2.0703-0.26653 4.963-0.66961 6.4281-0.89573 2.5743-0.39728 2.6883-0.3139 3.3825 2.4747 0.564 2.265 0.754 0.32813 0.8832-9.0035 0.1497-10.804 0.3204-12.166 1.8702-14.918 0.9379-1.6655 3.0561-3.9935 4.7069-5.1733 2.9617-2.1166 3.3002-2.1701 25.513-4.0284 37.926-3.1729 65.518-5.6095 76.73-6.7757 5.8832-0.61197 13.072-1.1127 15.974-1.1127 5.069 0 5.3982 0.11218 8.3159 2.8338 2.3675 2.2084 3.1902 3.6481 3.7273 6.5234 0.3791 2.0293 0.4957 4.2996 0.2591 5.0451-0.2871 0.90451-0.0477 1.3555 0.7195 1.3555 1.4553 0 2.3813 1.742 5.3734 10.108 2.2006 6.153 2.611 6.7844 4.7751 7.3451 2.7203 0.70489 6.093 3.6716 4.7014 4.1355-1.8157 0.60522-0.815 1.4016 1.3601 1.0824 2.0396-0.29936 2.2593-0.12854 2.3375 1.8183 0.0475 1.1818 0.0263 2.7396-0.0472 3.4619-0.0986 0.96928 0.4192 1.3155 1.9772 1.3221 1.1608 0.0049 3.9679 0.50739 6.2378 1.1166s5.5621 1.1118 7.3161 1.1167c2.3305 0.0065 3.1891 0.31192 3.1891 1.1345 0 0.97794 3.2732 1.1256 24.957 1.1256 24.303 0 24.982-0.04011 25.912-1.5299 0.5255-0.84142 1.3062-1.313 1.735-1.0481s19.459 0.6604 42.289 0.87869l41.51 0.39689 5.5482-4.8388c3.0516-2.6614 7.5948-6.2286 10.096-7.9271s6.4201-4.7996 8.7086-6.8912 4.68-3.8029 5.3145-3.8029 1.8799 0.92858 2.7678 2.0635 2.3475 2.251 3.2436 2.4802c1.0816 0.27666 1.5607 0.90891 1.4253 1.8812-0.1122 0.80548 0.4251 3.3193 1.1941 5.5863 1.2739 3.756 1.625 4.1551 3.9557 4.497 2.1767 0.31928 2.8314 0.92735 4.394 4.0812 1.751 3.5339 1.8374 4.3703 1.8608 18.009 0.0364 21.178-1.2209 38.101-4.1847 56.324-0.8054 4.9525-1.9276 9.4727-2.4937 10.045-1.4568 1.4728-3.1779 0.56068-4.3825-2.3225-0.8222-1.9675-1.9386-2.8445-5.464-4.2919-2.4369-1.0006-9.6141-4.2922-15.949-7.3148s-11.771-5.4956-12.08-5.4956-0.632 2.4224-0.7185 5.3831c-0.2585 8.8527-0.407 8.8998-8.8951 2.8196l-12.936-9.2649c-4.9759-3.5628-6.1273-4.0609-9.9354-4.2978-4.5568-0.28342-5.0718 0.06798-5.0718 3.4602 0 2.0263-2.7158 2.736-6.6091 1.7271-2.0169-0.52264-2.3954-0.97301-2.3954-2.8504 0-1.6006-0.3705-2.2464-1.3131-2.289-0.7223-0.03272-3.662-0.1569-6.5328-0.27614-3.0871-0.12816-5.3371-0.56923-5.5072-1.0796-0.1582-0.47454-0.8484-1.4298-1.5338-2.1227-0.9951-1.0061-1.2461-2.7797-1.2461-8.8035v-7.5436l-13.096-0.20915c-11.612-0.18546-13.242-0.36637-14.389-1.5972-1.0395-1.1158-2.4529-1.3957-7.2067-1.4271-5.2412-0.03463-6.5205-0.34363-11.251-2.7175-5.2378-2.6287-5.5053-2.6784-14.402-2.6784-5.5433 0-9.0653-0.29154-9.0653-0.75037 0-1.276-8.0274-0.92275-8.5255 0.37518-0.2959 0.77136-1.5019 1.1256-3.8321 1.1256-1.8701 0-3.4124 0.25326-3.4274 0.56278-0.1655 3.4342-0.9154 14.1-0.9983 14.199-0.0596 0.07107-2.4702 0.2046-5.3569 0.29672-3.2249 0.10291-6.261 0.6787-7.8748 1.4934-3.1638 1.5972-6.8708 5.413-8.6115 8.8643-2.4909 4.9387-2.3888 5.126 27.132 49.782 4.2871 6.485 8.2584 12.255 8.825 12.821s1.3486 2.1833 1.7378 3.5926c1.637 5.929-1.7664 7.7511-22.33 11.954-13.06 2.6695-16.684 2.8116-18.759 0.73627-1.5802-1.5802-1.9835-5.1994-0.8215-7.3708 0.7428-1.3879 0.1991-2.6067-6.5884-14.773-5.179-9.2824-7.0338-11.45-10.328-12.068-3.5377-0.66363-4.7322-3.1396-3.144-6.5166 0.9504-2.021 0.9805-2.7976 0.1829-4.7213-1.5332-3.6978-2.69-4.1846-10.977-4.6189-4.2452-0.22256-8.1009-0.70633-8.5684-1.075-1.2511-0.98704-28.103-0.82743-32.148 0.19097-1.8816 0.47379-3.5731 1.1075-3.7589 1.4082s-0.6981 4.3956-1.1383 9.0998c-1.1275 12.051-3.5032 25.74-6.3676 36.692-1.3494 5.1588-3.0513 11.743-3.7822 14.632s-1.785 6.3166-2.3425 7.6171-1.0135 3.4032-1.0135 4.6726c0 1.581-0.5442 2.6646-1.7276 3.4399-1.8617 1.2199-5.9281 2.2494-6.5317 1.6538zm61.165-88.632c4.0458-3.3153 5.3941-6.3479 4.1537-9.3425-1.1678-2.8195-3.6274-5.0839-6.2213-5.7277-2.0282-0.50335-2.0635-0.45263-2.0635 2.97 0 1.9152-0.5237 4.7376-1.1636 6.2719-1.1457 2.7467-5.309 7.6672-6.4873 7.6672-1.0638 0-0.6441-2.7838 0.5718-3.7929 2.3274-1.9315 3.4894-5.2664 2.9916-8.5858-0.8454-5.6376-1.3265-5.8953-10.767-5.7679-9.5374 0.12869-13.439 1.2927-15.387 4.59-1.7401 2.9457-1.6765 3.4594 1.1393 9.1985l2.4637 5.0215 13.805 0.04352 13.805 0.04352 3.1601-2.5894zm-258.95-80.601c0.4152-0.6719-2.7204-5.7282-5.7248-9.2311-0.94404-1.1008-3.0605-3.7177-4.7032-5.8154-4.2019-5.3658-7.1433-5.1259-7.1433 0.58263 0 2.3963-1.8901 5.3582-3.4192 5.3582-0.82001 0-1.083 1.063-1.083 4.3772 0 2.4074 0.22512 4.6023 0.50028 4.8774 0.74587 0.74589 21.107 0.60527 21.573-0.14899zm253.22-12.37c6.587-1.6167 7.8175-7.132 2.4088-10.796-1.8016-1.2203-5.0015-1.2976-45.026-1.0873-34.285 0.18015-43.587 0.43542-45.536 1.2496-2.975 1.243-5.1863 5.0201-4.1131 7.0254 1.4399 2.6905 3.0613 3.2473 11.094 3.8104 9.1678 0.64254 78.432 0.46995 81.171-0.20226z"/>
 </g>
</svg>
